<svg xmlns="http://www.w3.org/2000/svg" viewBox="0 0 800 600" preserveAspectRatio="xMidYMid slice" role="img" aria-label="Placeholder: dull dirty car paint before detailing">
  <rect width="800" height="600" fill="#43403a"/>
  <!-- dull panel -->
  <path d="M-20 430 C200 300 600 290 820 410 L820 620 L-20 620 Z" fill="#4f4a42"/>
  <path d="M-20 430 C200 300 600 290 820 410 L820 470 L-20 470 Z" fill="#585249" opacity="0.6"/>
  <!-- dirt film + spots (no reflection) -->
  <g fill="#6b6453" opacity="0.6">
    <circle cx="160" cy="400" r="13"/><circle cx="300" cy="370" r="9"/>
    <circle cx="470" cy="360" r="11"/><circle cx="620" cy="390" r="10"/>
    <circle cx="240" cy="470" r="8"/><circle cx="540" cy="470" r="12"/>
    <circle cx="700" cy="450" r="9"/>
  </g>
  <g fill="#827963" opacity="0.45">
    <circle cx="200" cy="440" r="5"/><circle cx="380" cy="420" r="6"/>
    <circle cx="560" cy="410" r="5"/><circle cx="660" cy="500" r="6"/>
  </g>
  <!-- door handle -->
  <rect x="380" y="368" width="92" height="18" rx="9" fill="#3a352c"/>
</svg>
