<svg xmlns="http://www.w3.org/2000/svg" viewBox="0 0 800 600" preserveAspectRatio="xMidYMid slice" role="img" aria-label="Placeholder: spotless car interior after detailing">
  <defs>
    <linearGradient id="iaf" x1="0" y1="0" x2="0" y2="1">
      <stop offset="0" stop-color="#2b2722"/><stop offset="1" stop-color="#14130f"/>
    </linearGradient>
  </defs>
  <rect width="800" height="600" fill="url(#iaf)"/>
  <radialGradient id="iag" cx="0.55" cy="0.3" r="0.6">
    <stop offset="0" stop-color="#ec6a1a" stop-opacity="0.18"/>
    <stop offset="1" stop-color="#14130f" stop-opacity="0"/>
  </radialGradient>
  <rect width="800" height="600" fill="url(#iag)"/>
  <!-- dashboard -->
  <path d="M0 230 C220 180 580 180 800 230 L800 300 L0 300 Z" fill="#0d0d0b"/>
  <!-- steering wheel -->
  <circle cx="250" cy="320" r="78" fill="none" stroke="#37352f" stroke-width="18"/>
  <circle cx="250" cy="320" r="18" fill="#37352f"/>
  <!-- clean seat -->
  <path d="M480 540 L480 360 a54 54 0 0 1 54 -54 l52 0 a54 54 0 0 1 54 54 L640 540 Z" fill="#3a352c"/>
  <path d="M498 360 a36 36 0 0 1 36 -36 l34 0 a36 36 0 0 1 36 36 L604 470 L498 470 Z" fill="#4a443a"/>
  <!-- gloss highlights -->
  <path d="M512 360 q24 -18 52 0" stroke="#ec6a1a" stroke-width="3.5" fill="none" opacity="0.8"/>
  <path d="M150 300 C360 268 520 268 690 300" stroke="#ffffff" stroke-width="2" fill="none" opacity="0.18"/>
  <path d="M470 120 l7 19 19 7 -19 7 -7 19 -7 -19 -19 -7 19 -7 z" fill="#ec6a1a"/>
</svg>
