<svg xmlns="http://www.w3.org/2000/svg" viewBox="0 0 600 400" preserveAspectRatio="xMidYMid slice" role="img" aria-label="Placeholder: full interior and exterior detail">
  <defs>
    <linearGradient id="f" x1="0" y1="0" x2="1" y2="1">
      <stop offset="0" stop-color="#1a1916"/><stop offset="1" stop-color="#37352f"/>
    </linearGradient>
  </defs>
  <rect width="600" height="400" fill="url(#f)"/>
  <ellipse cx="420" cy="120" rx="260" ry="180" fill="#ec6a1a" opacity="0.16"/>
  <path d="M70 270 C150 200 230 185 300 185 C400 185 480 205 540 250 L540 285 L70 285 Z" fill="#0d0d0b"/>
  <path d="M180 200 C240 165 360 165 420 200 L470 240 L150 240 Z" fill="#26221b"/>
  <path d="M200 205 C250 178 350 178 405 205 L440 235 L175 235 Z" fill="#0a0a08"/>
  <path d="M120 245 C260 215 420 212 520 248" stroke="#ec6a1a" stroke-width="2.5" fill="none" opacity="0.8"/>
  <circle cx="190" cy="285" r="34" fill="#0a0a08"/><circle cx="190" cy="285" r="16" fill="#3a352c"/>
  <circle cx="430" cy="285" r="34" fill="#0a0a08"/><circle cx="430" cy="285" r="16" fill="#3a352c"/>
  <path d="M430 70 l8 22 22 8 -22 8 -8 22 -8 -22 -22 -8 22 -8 z" fill="#ffffff" opacity="0.85"/>
</svg>
