<svg xmlns="http://www.w3.org/2000/svg" viewBox="0 0 600 400" preserveAspectRatio="xMidYMid slice" role="img" aria-label="Placeholder: clean detailed car interior">
  <defs>
    <linearGradient id="i" x1="0" y1="0" x2="0" y2="1">
      <stop offset="0" stop-color="#2b2722"/><stop offset="1" stop-color="#14130f"/>
    </linearGradient>
  </defs>
  <rect width="600" height="400" fill="url(#i)"/>
  <!-- dashboard -->
  <path d="M0 150 C160 110 440 110 600 150 L600 200 L0 200 Z" fill="#0d0d0b"/>
  <!-- steering wheel -->
  <circle cx="190" cy="215" r="58" fill="none" stroke="#37352f" stroke-width="14"/>
  <circle cx="190" cy="215" r="14" fill="#37352f"/>
  <!-- seats, freshly cleaned -->
  <path d="M360 360 L360 250 a40 40 0 0 1 40 -40 l40 0 a40 40 0 0 1 40 40 L480 360 Z" fill="#3a352c"/>
  <path d="M372 250 a28 28 0 0 1 28 -28 l24 0 a28 28 0 0 1 28 28 L452 330 L372 330 Z" fill="#4a443a"/>
  <!-- gloss highlight on seat -->
  <path d="M392 250 q20 -16 44 0" stroke="#ec6a1a" stroke-width="3" fill="none" opacity="0.7"/>
  <!-- sparkle -->
  <path d="M470 110 l6 17 17 6 -17 6 -6 17 -6 -17 -17 -6 17 -6 z" fill="#ec6a1a"/>
</svg>
